<svg width="106" height="228" viewBox="0 0 106 228" fill="none" xmlns="http://www.w3.org/2000/svg">
<path d="M55 219.5C52.6 219.5 37.6667 217.989 30.5 217.234L51 204.5H78.5C71.6667 209.5 57.4 219.5 55 219.5Z" fill="#8D8D8D"/>
<path d="M78.5 196.5C77.3 197.7 60.3485 197.667 52.0228 197.5L72 181L97 173C91.3333 180.333 79.7 195.3 78.5 196.5Z" fill="#8D8D8D"/>
<path d="M94 165C88.8 170.6 76.5749 172.667 71.1124 173C74.9082 167 82.9 154.6 84.5 153C86.1 151.4 99.5 142 106 137.5C104.167 144.333 99.2 159.4 94 165Z" fill="#8D8D8D"/>
<path d="M101.5 131C99.5 135.8 86.8174 143.667 80.726 147L88.5 122.5L104.5 102.5C104.333 110 103.5 126.2 101.5 131Z" fill="#8D8D8D"/>
<path d="M98.5 96.5C97.7 102.5 88.0481 112.667 83.3222 117L84.5 91L94 67C98.5 71.5 99.5 89 98.5 96.5Z" fill="#8D8D8D"/>
<path d="M87 63.5C87 69.9 80.82 81.8333 77.73 87C75.82 79.6667 71.9 64.1 71.5 60.5C71.1 56.9 73.3333 43 74.5 36.5C78.6667 42.8333 87 57.1 87 63.5Z" fill="#8D8D8D"/>
<path d="M66 36.5C67.473 42.9 65.3863 56.1667 64.1588 62C60.6059 56.3333 53 44 51 40C49 36 47.5 20.6667 47 13.5C52.7196 18.5 64.527 30.1 66 36.5Z" fill="#8D8D8D"/>
<path d="M43.5271 40.2328C43.3104 40.121 43.1344 40.0448 43 40C37.8333 35 26.9 24.3 24.5 21.5C22.1 18.7 16.8333 6 14.5 0C24 2 35 10.5 39 16C42.2 20.4 43.3514 33.9885 43.5271 40.2328Z" fill="#8D8D8D"/>
<path d="M19.5 34.5C24.7 33.7 36.3333 39.5 41.5 42.5C36.6667 44.3333 25.7 48.3 20.5 49.5C15.3 50.7 4.66667 48.6667 0 47C4.5 40.5 14.3 35.3 19.5 34.5Z" fill="#8D8D8D"/>
<path d="M61.6906 63.5H37.5C34.3 63.5 24.8333 58.5 20.5 56C24.3333 53.5 33.8 48.8 41 50C48.2 51.2 57.7937 59.5 61.6906 63.5Z" fill="#8D8D8D"/>
<path d="M59.5 70C63.5 71.6 71.5 83.3333 75 89C68.1667 87 54.1 82.9 52.5 82.5C50.9 82.1 41.1667 74 36.5 70C42.5 69.3333 55.5 68.4 59.5 70Z" fill="#8D8D8D"/>
<path d="M71.5 95.5C75.5 98.3 78.9394 110.333 80.1591 116C80.1886 116.334 80.2168 116.667 80.2438 117C74.4958 113.5 62.5 106.1 60.5 104.5C58.5 102.9 52.3333 93.1667 49.5 88.5C56 88 67.5 92.7 71.5 95.5Z" fill="#8D8D8D"/>
<path d="M77.6122 145.5C73.2415 140.667 64.1 130.4 62.5 128C60.9 125.6 57.5 115 56 110C61.1667 112.167 72.2 117.6 75 122C77.8 126.4 78.3462 137.833 78.2692 143C78.0593 143.83 77.8399 144.664 77.6122 145.5Z" fill="#8D8D8D"/>
<path d="M40.5 40H43C43.1344 40.0448 43.3104 40.121 43.5271 40.2328C44.9216 40.9529 47.9991 43.1529 52.5 48C56.0964 51.8731 60.1521 56.5115 64.1588 62C67.3936 66.4311 70.5964 71.4162 73.5 77C75.0926 80.0626 76.505 83.4254 77.73 87C80.8522 96.1105 82.7568 106.598 83.3222 117C83.4403 119.175 83.5 121.346 83.5 123.5C83.5 132.088 82.5518 139.592 80.726 147C79.0439 153.825 76.6169 160.567 73.5 168C72.7926 169.687 71.9905 171.356 71.1124 173C66.0758 182.43 58.5373 191.042 52.0228 197.5C49.2358 200.263 46.6362 202.631 44.5 204.5C41.0237 207.542 35.6199 212.491 30.5 217.234C26.1939 221.222 22.0887 225.064 19.5 227.5H17.5V225C20.013 222.613 24.9891 217.914 29 214.203C29.1685 214.047 29.3352 213.893 29.5 213.741C30.616 212.711 31.6423 211.772 32.5 211C37.3952 206.594 42.7695 201.709 50.5 194.469L51 194C58.0583 187.383 63.5598 179.987 67.5043 172.5C67.8553 171.834 68.1939 171.167 68.5202 170.5C68.6832 170.167 68.8431 169.833 69 169.5C71.8445 163.455 75.1948 154.376 77.6122 145.5C77.8399 144.664 78.0593 143.83 78.2692 143C78.9647 140.251 79.5562 137.552 80 135C80.806 130.366 80.8 123.864 80.2438 117C80.2168 116.667 80.1886 116.334 80.1591 116C79.2865 106.118 77.31 95.6413 75 89C71.8242 79.8697 67.3878 71.3697 61.6906 63.5C60.212 61.4575 58.6485 59.4575 57 57.5C50.6 49.9 44 44.3333 41.5 42.5L40.5 40Z" fill="#8D8D8D"/>
<path d="M70.5 148.5C72.5 152.9 70.0134 165 68.5202 170.5C68.1939 171.167 67.8553 171.834 67.5043 172.5C64.6696 166.667 58.8 154.4 58 152C57.2 149.6 57 138 57 132.5C60.6667 136 68.5 144.1 70.5 148.5Z" fill="#8D8D8D"/>
<path d="M60 173.5C60 177.9 54 189 51 194L50.5 194.469C49.3333 188.312 46.9 175 46.5 171C46.1 167 49.3333 157.667 51 153.5C54 158.333 60 169.1 60 173.5Z" fill="#8D8D8D"/>
<path d="M42 194.469C41.6 197.643 33.5 208.64 29.5 213.741C29.3352 213.893 29.1685 214.047 29 214.203C28.6667 207.135 28.2 192.4 29 190C29.8 187.6 36.3333 177.333 39.5 172.5C43 180 42.4 191.294 42 194.469Z" fill="#8D8D8D"/>
</svg>
