<svg width="106" height="228" viewBox="0 0 106 228" fill="none" xmlns="http://www.w3.org/2000/svg">
<path d="M51 219.5C53.4 219.5 68.3333 217.989 75.5 217.234L55 204.5H27.5C34.3333 209.5 48.6 219.5 51 219.5Z" fill="#8D8D8D"/>
<path d="M27.5 196.5C28.7 197.7 45.6515 197.667 53.9772 197.5L34 181L9 173C14.6667 180.333 26.3 195.3 27.5 196.5Z" fill="#8D8D8D"/>
<path d="M12 165C17.2 170.6 29.4251 172.667 34.8876 173C31.0918 167 23.1 154.6 21.5 153C19.9 151.4 6.5 142 0 137.5C1.83333 144.333 6.8 159.4 12 165Z" fill="#8D8D8D"/>
<path d="M4.5 131C6.5 135.8 19.1826 143.667 25.274 147L17.5 122.5L1.5 102.5C1.66667 110 2.5 126.2 4.5 131Z" fill="#8D8D8D"/>
<path d="M7.5 96.5C8.3 102.5 17.9519 112.667 22.6778 117L21.5 91L12 67C7.5 71.5 6.5 89 7.5 96.5Z" fill="#8D8D8D"/>
<path d="M19 63.5C19 69.9 25.18 81.8333 28.27 87C30.18 79.6667 34.1 64.1 34.5 60.5C34.9 56.9 32.6667 43 31.5 36.5C27.3333 42.8333 19 57.1 19 63.5Z" fill="#8D8D8D"/>
<path d="M40 36.5C38.527 42.9 40.6137 56.1667 41.8412 62C45.3941 56.3333 53 44 55 40C57 36 58.5 20.6667 59 13.5C53.2804 18.5 41.473 30.1 40 36.5Z" fill="#8D8D8D"/>
<path d="M62.4729 40.2328C62.6896 40.121 62.8656 40.0448 63 40C68.1667 35 79.1 24.3 81.5 21.5C83.9 18.7 89.1667 6 91.5 0C82 2 71 10.5 67 16C63.8 20.4 62.6486 33.9885 62.4729 40.2328Z" fill="#8D8D8D"/>
<path d="M86.5 34.5C81.3 33.7 69.6667 39.5 64.5 42.5C69.3333 44.3333 80.3 48.3 85.5 49.5C90.7 50.7 101.333 48.6667 106 47C101.5 40.5 91.7 35.3 86.5 34.5Z" fill="#8D8D8D"/>
<path d="M44.3094 63.5H68.5C71.7 63.5 81.1667 58.5 85.5 56C81.6667 53.5 72.2 48.8 65 50C57.8 51.2 48.2063 59.5 44.3094 63.5Z" fill="#8D8D8D"/>
<path d="M46.5 70C42.5 71.6 34.5 83.3333 31 89C37.8333 87 51.9 82.9 53.5 82.5C55.1 82.1 64.8333 74 69.5 70C63.5 69.3333 50.5 68.4 46.5 70Z" fill="#8D8D8D"/>
<path d="M34.5 95.5C30.5 98.3 27.0606 110.333 25.8409 116C25.8114 116.334 25.7832 116.667 25.7562 117C31.5042 113.5 43.5 106.1 45.5 104.5C47.5 102.9 53.6667 93.1667 56.5 88.5C50 88 38.5 92.7 34.5 95.5Z" fill="#8D8D8D"/>
<path d="M28.3878 145.5C32.7585 140.667 41.9 130.4 43.5 128C45.1 125.6 48.5 115 50 110C44.8333 112.167 33.8 117.6 31 122C28.2 126.4 27.6538 137.833 27.7308 143C27.9407 143.83 28.1601 144.664 28.3878 145.5Z" fill="#8D8D8D"/>
<path d="M65.5 40H63C62.8656 40.0448 62.6896 40.121 62.4729 40.2328C61.0784 40.9529 58.0009 43.1529 53.5 48C49.9036 51.8731 45.8479 56.5115 41.8412 62C38.6064 66.4311 35.4036 71.4162 32.5 77C30.9074 80.0626 29.495 83.4254 28.27 87C25.1478 96.1105 23.2432 106.598 22.6778 117C22.5597 119.175 22.5 121.346 22.5 123.5C22.5 132.088 23.4482 139.592 25.274 147C26.9561 153.825 29.3831 160.567 32.5 168C33.2074 169.687 34.0095 171.356 34.8876 173C39.9242 182.43 47.4627 191.042 53.9772 197.5C56.7642 200.263 59.3638 202.631 61.5 204.5C64.9763 207.542 70.3801 212.491 75.5 217.234C79.8061 221.222 83.9113 225.064 86.5 227.5H88.5V225C85.987 222.613 81.0109 217.914 77 214.203C76.8315 214.047 76.6648 213.893 76.5 213.741C75.384 212.711 74.3577 211.772 73.5 211C68.6048 206.594 63.2305 201.709 55.5 194.469L55 194C47.9417 187.383 42.4402 179.987 38.4957 172.5C38.1447 171.834 37.8061 171.167 37.4798 170.5C37.3168 170.167 37.1569 169.833 37 169.5C34.1555 163.455 30.8052 154.376 28.3878 145.5C28.1601 144.664 27.9407 143.83 27.7308 143C27.0353 140.251 26.4438 137.552 26 135C25.194 130.366 25.2 123.864 25.7562 117C25.7832 116.667 25.8114 116.334 25.8409 116C26.7135 106.118 28.69 95.6413 31 89C34.1758 79.8697 38.6122 71.3697 44.3094 63.5C45.788 61.4575 47.3515 59.4575 49 57.5C55.4 49.9 62 44.3333 64.5 42.5L65.5 40Z" fill="#8D8D8D"/>
<path d="M35.5 148.5C33.5 152.9 35.9866 165 37.4798 170.5C37.8061 171.167 38.1447 171.834 38.4957 172.5C41.3304 166.667 47.2 154.4 48 152C48.8 149.6 49 138 49 132.5C45.3333 136 37.5 144.1 35.5 148.5Z" fill="#8D8D8D"/>
<path d="M46 173.5C46 177.9 52 189 55 194L55.5 194.469C56.6667 188.312 59.1 175 59.5 171C59.9 167 56.6667 157.667 55 153.5C52 158.333 46 169.1 46 173.5Z" fill="#8D8D8D"/>
<path d="M64 194.469C64.4 197.643 72.5 208.64 76.5 213.741C76.6648 213.893 76.8315 214.047 77 214.203C77.3333 207.135 77.8 192.4 77 190C76.2 187.6 69.6667 177.333 66.5 172.5C63 180 63.6 191.294 64 194.469Z" fill="#8D8D8D"/>
</svg>
